Normalized EMG Linear Envelopes
nRows=59
nColumns=17

endheader
time	        VM	        VL	        RF	       GRA	        TA	   ADDLONG	   SEMIMEM	      BFLH	        GM	        GL	       TFL	   GLUTMAX	   GLUTMED	      PIRI	    OBTINT	        QF	
1.946	  0.038464	  0.158779	  0.436381	  0.625522	  0.640883	  0.276621	  0.183783	  0.106403	  0.201927	  0.208903	  0.351815	  0.018412	  0.051279	  0.465323	  0.415481	  0.153645	
1.9465	  0.038638	  0.158720	  0.438941	  0.625624	  0.644315	  0.277192	  0.184211	  0.106513	  0.203137	  0.208549	  0.353413	  0.018324	  0.050923	  0.463776	  0.404883	  0.152529	
1.947	  0.038828	  0.158686	  0.441544	  0.625661	  0.647727	  0.277794	  0.184595	  0.106598	  0.204314	  0.208193	  0.355040	  0.018243	  0.050571	  0.462183	  0.394477	  0.151409	
1.9475	  0.039035	  0.158678	  0.444187	  0.625632	  0.651116	  0.278427	  0.184936	  0.106659	  0.205457	  0.207834	  0.356692	  0.018168	  0.050225	  0.460543	  0.384263	  0.150283	
1.948	  0.039257	  0.158694	  0.446871	  0.625540	  0.654482	  0.279091	  0.185233	  0.106696	  0.206564	  0.207473	  0.358370	  0.018099	  0.049883	  0.458858	  0.374240	  0.149153	
1.9485	  0.039494	  0.158735	  0.449594	  0.625385	  0.657823	  0.279784	  0.185487	  0.106710	  0.207633	  0.207111	  0.360071	  0.018037	  0.049546	  0.457130	  0.364409	  0.148019	
1.949	  0.039746	  0.158799	  0.452356	  0.625169	  0.661140	  0.280508	  0.185696	  0.106701	  0.208662	  0.206747	  0.361796	  0.017980	  0.049214	  0.455360	  0.354766	  0.146883	
1.9495	  0.040011	  0.158887	  0.455155	  0.624894	  0.664431	  0.281263	  0.185862	  0.106670	  0.209649	  0.206381	  0.363542	  0.017929	  0.048887	  0.453549	  0.345313	  0.145744	
1.95	  0.040290	  0.158997	  0.457989	  0.624560	  0.667695	  0.282047	  0.185983	  0.106617	  0.210593	  0.206014	  0.365308	  0.017885	  0.048565	  0.451699	  0.336048	  0.144604	
1.9505	  0.040581	  0.159129	  0.460859	  0.624171	  0.670933	  0.282862	  0.186060	  0.106542	  0.211493	  0.205646	  0.367094	  0.017846	  0.048248	  0.449812	  0.326970	  0.143462	
1.951	  0.040885	  0.159283	  0.463761	  0.623729	  0.674143	  0.283706	  0.186093	  0.106448	  0.212345	  0.205278	  0.368897	  0.017812	  0.047936	  0.447888	  0.318078	  0.142320	
1.9515	  0.041199	  0.159458	  0.466696	  0.623235	  0.677324	  0.284581	  0.186081	  0.106333	  0.213150	  0.204908	  0.370716	  0.017785	  0.047628	  0.445931	  0.309371	  0.141178	
1.952	  0.041525	  0.159653	  0.469660	  0.622694	  0.680476	  0.285486	  0.186025	  0.106199	  0.213905	  0.204539	  0.372549	  0.017762	  0.047325	  0.443941	  0.300849	  0.140036	
1.9525	  0.041861	  0.159867	  0.472652	  0.622108	  0.683598	  0.286420	  0.185925	  0.106047	  0.214609	  0.204170	  0.374396	  0.017745	  0.047027	  0.441920	  0.292510	  0.138895	
1.953	  0.042207	  0.160100	  0.475671	  0.621479	  0.686688	  0.287383	  0.185782	  0.105876	  0.215260	  0.203801	  0.376254	  0.017734	  0.046733	  0.439869	  0.284353	  0.137756	
1.9535	  0.042562	  0.160351	  0.478714	  0.620811	  0.689746	  0.288376	  0.185596	  0.105688	  0.215857	  0.203434	  0.378122	  0.017727	  0.046444	  0.437791	  0.276378	  0.136618	
1.954	  0.042926	  0.160619	  0.481780	  0.620104	  0.692770	  0.289398	  0.185367	  0.105484	  0.216400	  0.203067	  0.380000	  0.017726	  0.046159	  0.435685	  0.268583	  0.135482	
1.9545	  0.043298	  0.160903	  0.484865	  0.619363	  0.695758	  0.290447	  0.185096	  0.105263	  0.216886	  0.202702	  0.381885	  0.017730	  0.045879	  0.433554	  0.260968	  0.134350	
1.955	  0.043678	  0.161203	  0.487968	  0.618590	  0.698709	  0.291525	  0.184784	  0.105026	  0.217316	  0.202339	  0.383778	  0.017739	  0.045602	  0.431399	  0.253530	  0.133221	
1.9555	  0.044066	  0.161516	  0.491087	  0.617787	  0.701623	  0.292631	  0.184432	  0.104773	  0.217690	  0.201977	  0.385676	  0.017752	  0.045330	  0.429221	  0.246269	  0.132095	
1.956	  0.044461	  0.161843	  0.494218	  0.616957	  0.704496	  0.293763	  0.184041	  0.104506	  0.218007	  0.201617	  0.387579	  0.017771	  0.045063	  0.427020	  0.239183	  0.130974	
1.9565	  0.044863	  0.162182	  0.497360	  0.616103	  0.707330	  0.294921	  0.183611	  0.104225	  0.218269	  0.201259	  0.389487	  0.017794	  0.044799	  0.424798	  0.232272	  0.129858	
1.957	  0.045271	  0.162532	  0.500509	  0.615226	  0.710121	  0.296106	  0.183142	  0.103929	  0.218474	  0.200903	  0.391397	  0.017821	  0.044540	  0.422556	  0.225534	  0.128747	
1.9575	  0.045685	  0.162892	  0.503663	  0.614330	  0.712871	  0.297315	  0.182637	  0.103621	  0.218625	  0.200549	  0.393308	  0.017854	  0.044284	  0.420294	  0.218967	  0.127641	
1.958	  0.046104	  0.163261	  0.506819	  0.613415	  0.715579	  0.298548	  0.182095	  0.103299	  0.218722	  0.200197	  0.395220	  0.017890	  0.044033	  0.418012	  0.212570	  0.126543	
1.9585	  0.046529	  0.163638	  0.509974	  0.612485	  0.718243	  0.299805	  0.181517	  0.102964	  0.218765	  0.199848	  0.397132	  0.017931	  0.043785	  0.415712	  0.206341	  0.125451	
1.959	  0.046959	  0.164021	  0.513125	  0.611540	  0.720864	  0.301085	  0.180905	  0.102617	  0.218757	  0.199502	  0.399042	  0.017977	  0.043542	  0.413393	  0.200280	  0.124366	
1.9595	  0.047394	  0.164409	  0.516268	  0.610584	  0.723441	  0.302388	  0.180259	  0.102258	  0.218697	  0.199158	  0.400949	  0.018026	  0.043303	  0.411056	  0.194384	  0.123289	
1.96	  0.047832	  0.164802	  0.519403	  0.609618	  0.725975	  0.303712	  0.179580	  0.101888	  0.218588	  0.198818	  0.402852	  0.018080	  0.043068	  0.408701	  0.188652	  0.122220	
1.9605	  0.048275	  0.165197	  0.522524	  0.608643	  0.728464	  0.305058	  0.178870	  0.101506	  0.218430	  0.198481	  0.404750	  0.018138	  0.042836	  0.406327	  0.183082	  0.121160	
1.961	  0.048720	  0.165595	  0.525630	  0.607661	  0.730910	  0.306425	  0.178129	  0.101113	  0.218225	  0.198148	  0.406643	  0.018199	  0.042609	  0.403936	  0.177673	  0.120109	
1.9615	  0.049169	  0.165993	  0.528718	  0.606673	  0.733313	  0.307812	  0.177360	  0.100709	  0.217974	  0.197819	  0.408529	  0.018265	  0.042385	  0.401526	  0.172424	  0.119067	
1.962	  0.049620	  0.166390	  0.531785	  0.605681	  0.735674	  0.309220	  0.176564	  0.100295	  0.217678	  0.197493	  0.410410	  0.018334	  0.042166	  0.399097	  0.167333	  0.118034	
1.9625	  0.050074	  0.166785	  0.534830	  0.604686	  0.737994	  0.310647	  0.175741	  0.099872	  0.217339	  0.197170	  0.412284	  0.018407	  0.041951	  0.396650	  0.162398	  0.117012	
1.963	  0.050529	  0.167178	  0.537852	  0.603689	  0.740274	  0.312094	  0.174894	  0.099438	  0.216958	  0.196852	  0.414150	  0.018483	  0.041740	  0.394182	  0.157619	  0.116000	
1.9635	  0.050985	  0.167566	  0.540850	  0.602691	  0.742514	  0.313559	  0.174023	  0.098995	  0.216536	  0.196537	  0.416010	  0.018563	  0.041533	  0.391695	  0.152994	  0.114999	
1.964	  0.051443	  0.167948	  0.543822	  0.601692	  0.744718	  0.315043	  0.173131	  0.098544	  0.216075	  0.196225	  0.417861	  0.018646	  0.041330	  0.389186	  0.148523	  0.114009	
1.9645	  0.051901	  0.168323	  0.546769	  0.600693	  0.746884	  0.316544	  0.172217	  0.098084	  0.215575	  0.195916	  0.419704	  0.018733	  0.041132	  0.386657	  0.144203	  0.113030	
1.965	  0.052360	  0.168691	  0.549689	  0.599695	  0.749015	  0.318063	  0.171284	  0.097616	  0.215038	  0.195611	  0.421538	  0.018822	  0.040938	  0.384105	  0.140035	  0.112064	
1.9655	  0.052819	  0.169049	  0.552582	  0.598699	  0.751112	  0.319598	  0.170332	  0.097142	  0.214465	  0.195308	  0.423361	  0.018915	  0.040748	  0.381531	  0.136016	  0.111109	
1.966	  0.053277	  0.169397	  0.555448	  0.597705	  0.753174	  0.321149	  0.169363	  0.096660	  0.213857	  0.195009	  0.425174	  0.019011	  0.040563	  0.378933	  0.132146	  0.110166	
1.9665	  0.053736	  0.169734	  0.558286	  0.596713	  0.755203	  0.322715	  0.168377	  0.096172	  0.213216	  0.194711	  0.426975	  0.019110	  0.040382	  0.376313	  0.128424	  0.109236	
1.967	  0.054193	  0.170059	  0.561094	  0.595724	  0.757199	  0.324296	  0.167377	  0.095679	  0.212541	  0.194415	  0.428764	  0.019211	  0.040206	  0.373669	  0.124848	  0.108319	
1.9675	  0.054650	  0.170372	  0.563874	  0.594738	  0.759162	  0.325892	  0.166362	  0.095181	  0.211835	  0.194121	  0.430540	  0.019315	  0.040035	  0.371002	  0.121417	  0.107415	
1.968	  0.055106	  0.170673	  0.566624	  0.593755	  0.761093	  0.327500	  0.165334	  0.094678	  0.211099	  0.193828	  0.432301	  0.019422	  0.039868	  0.368311	  0.118129	  0.106523	
1.9685	  0.055561	  0.170960	  0.569347	  0.592775	  0.762992	  0.329123	  0.164295	  0.094170	  0.210333	  0.193535	  0.434046	  0.019532	  0.039705	  0.365598	  0.114985	  0.105645	
1.969	  0.056015	  0.171235	  0.572042	  0.591798	  0.764860	  0.330757	  0.163244	  0.093659	  0.209539	  0.193242	  0.435774	  0.019644	  0.039547	  0.362861	  0.111981	  0.104780	
1.9695	  0.056467	  0.171495	  0.574711	  0.590825	  0.766697	  0.332404	  0.162182	  0.093145	  0.208717	  0.192949	  0.437485	  0.019759	  0.039394	  0.360103	  0.109118	  0.103928	
1.97	  0.056917	  0.171742	  0.577356	  0.589854	  0.768504	  0.334063	  0.161112	  0.092628	  0.207869	  0.192654	  0.439176	  0.019876	  0.039245	  0.357323	  0.106394	  0.103090	
1.9705	  0.057365	  0.171974	  0.579976	  0.588885	  0.770282	  0.335733	  0.160033	  0.092108	  0.206995	  0.192357	  0.440845	  0.019995	  0.039101	  0.354522	  0.103808	  0.102265	
1.971	  0.057812	  0.172192	  0.582575	  0.587918	  0.772029	  0.337413	  0.158946	  0.091586	  0.206096	  0.192057	  0.442493	  0.020116	  0.038961	  0.351702	  0.101358	  0.101453	
1.9715	  0.058256	  0.172396	  0.585152	  0.586952	  0.773746	  0.339103	  0.157852	  0.091062	  0.205173	  0.191754	  0.444117	  0.020240	  0.038825	  0.348862	  0.099044	  0.100654	
1.972	  0.058698	  0.172586	  0.587708	  0.585988	  0.775434	  0.340802	  0.156752	  0.090536	  0.204227	  0.191447	  0.445715	  0.020365	  0.038694	  0.346004	  0.096865	  0.099869	
1.9725	  0.059139	  0.172761	  0.590244	  0.585023	  0.777092	  0.342509	  0.155646	  0.090009	  0.203259	  0.191134	  0.447286	  0.020492	  0.038567	  0.343127	  0.094819	  0.099096	
1.973	  0.059577	  0.172923	  0.592760	  0.584059	  0.778718	  0.344223	  0.154535	  0.089481	  0.202269	  0.190815	  0.448828	  0.020621	  0.038444	  0.340233	  0.092904	  0.098337	
1.9735	  0.060013	  0.173071	  0.595257	  0.583095	  0.780313	  0.345944	  0.153420	  0.088953	  0.201259	  0.190489	  0.450339	  0.020752	  0.038326	  0.337322	  0.091121	  0.097590	
1.974	  0.060447	  0.173205	  0.597734	  0.582130	  0.781875	  0.347669	  0.152302	  0.088424	  0.200228	  0.190155	  0.451817	  0.020884	  0.038212	  0.334394	  0.089467	  0.096856	
1.9745	  0.060878	  0.173328	  0.600193	  0.581163	  0.783403	  0.349399	  0.151180	  0.087894	  0.199178	  0.189811	  0.453262	  0.021017	  0.038101	  0.331449	  0.087942	  0.096134	
1.975	  0.061308	  0.173437	  0.602632	  0.580194	  0.784895	  0.351131	  0.150055	  0.087365	  0.198109	  0.189456	  0.454670	  0.021152	  0.037995	  0.328488	  0.086543	  0.095425	
